<svg width="23" height="22" viewBox="0 0 23 22" fill="none" xmlns="http://www.w3.org/2000/svg">
<path d="M19.6489 9.4447C19.7648 8.66746 19.7268 7.87174 19.5349 7.10665C19.2815 6.09593 18.7595 5.13875 17.9691 4.34835C17.1788 3.55796 16.2216 3.03605 15.2109 2.78262C14.4458 2.59077 13.65 2.55277 12.8728 2.66863" stroke="#1A1C1F" stroke-width="2" stroke-linecap="round" stroke-linejoin="round"/>
<path d="M16.1701 9.0766C16.2942 8.24399 16.0358 7.36537 15.3949 6.72443C14.7539 6.0835 13.8753 5.82504 13.0427 5.94916" stroke="#1A1C1F" stroke-width="2" stroke-linecap="round" stroke-linejoin="round"/>
<path d="M7.08873 4.03069C7.42176 4.03069 7.72856 4.21128 7.89017 4.50243L9.01149 6.52222C9.15829 6.78668 9.16516 7.10655 9.02991 7.3771L7.94971 9.5375C7.94971 9.5375 8.26275 11.1469 9.57285 12.457C10.883 13.7671 12.487 14.0748 12.487 14.0748L14.6471 12.9948C14.9178 12.8594 15.2379 12.8664 15.5024 13.0135L17.528 14.1396C17.8188 14.3013 17.9992 14.608 17.9992 14.9407V17.2661C17.9992 18.4503 16.8993 19.3056 15.7772 18.927C13.4728 18.1494 9.89561 16.6689 7.62833 14.4016C5.361 12.1343 3.88049 8.55713 3.10291 6.25267C2.72432 5.13063 3.57961 4.03069 4.76378 4.03069H7.08873Z" stroke="#1A1C1F" stroke-width="2" stroke-linejoin="round"/>
</svg>
